<?xml version="1.0" encoding="UTF-8"?>
<svg id="Layer_1" data-name="Layer 1" xmlns="http://www.w3.org/2000/svg" version="1.1" xmlns:xlink="http://www.w3.org/1999/xlink" viewBox="0 0 1920 1080">
  <defs>
    <style>
      .cls-1 {
        fill: url(#linear-gradient-38);
      }

      .cls-1, .cls-2, .cls-3, .cls-4, .cls-5, .cls-6, .cls-7, .cls-8, .cls-9, .cls-10, .cls-11, .cls-12, .cls-13, .cls-14, .cls-15, .cls-16, .cls-17, .cls-18, .cls-19, .cls-20, .cls-21, .cls-22, .cls-23, .cls-24, .cls-25, .cls-26, .cls-27, .cls-28, .cls-29, .cls-30, .cls-31, .cls-32, .cls-33, .cls-34, .cls-35, .cls-36, .cls-37, .cls-38, .cls-39, .cls-40, .cls-41, .cls-42, .cls-43, .cls-44, .cls-45, .cls-46, .cls-47, .cls-48, .cls-49, .cls-50, .cls-51 {
        stroke-width: 0px;
      }

      .cls-2 {
        fill: url(#linear-gradient-12);
      }

      .cls-3 {
        fill: url(#linear-gradient-17);
      }

      .cls-4 {
        fill: url(#linear-gradient-19);
      }

      .cls-5 {
        fill: url(#linear-gradient-33);
      }

      .cls-6 {
        fill: url(#linear-gradient);
      }

      .cls-7 {
        fill: url(#linear-gradient-21);
      }

      .cls-8 {
        fill: url(#linear-gradient-6);
      }

      .cls-52 {
        opacity: .6;
      }

      .cls-9 {
        fill: url(#linear-gradient-42);
      }

      .cls-10 {
        fill: url(#linear-gradient-15);
      }

      .cls-11 {
        fill: url(#linear-gradient-11);
      }

      .cls-12 {
        fill: url(#linear-gradient-16);
        opacity: .5;
      }

      .cls-13 {
        fill: url(#linear-gradient-5);
      }

      .cls-14 {
        fill: url(#linear-gradient-31);
      }

      .cls-15 {
        fill: #c9a227;
      }

      .cls-16 {
        fill: url(#linear-gradient-34);
      }

      .cls-17 {
        fill: url(#linear-gradient-41);
      }

      .cls-18 {
        fill: url(#linear-gradient-40);
      }

      .cls-19 {
        fill: url(#linear-gradient-13);
      }

      .cls-20 {
        fill: url(#linear-gradient-23);
      }

      .cls-21 {
        fill: url(#linear-gradient-25);
      }

      .cls-22 {
        fill: url(#linear-gradient-43);
      }

      .cls-23 {
        fill: url(#linear-gradient-22);
      }

      .cls-24 {
        fill: url(#linear-gradient-35);
      }

      .cls-25 {
        fill: url(#linear-gradient-32);
      }

      .cls-26 {
        fill: url(#linear-gradient-20);
      }

      .cls-27 {
        fill: url(#linear-gradient-14);
      }

      .cls-28 {
        fill: url(#linear-gradient-2);
      }

      .cls-29 {
        fill: url(#linear-gradient-45);
      }

      .cls-30 {
        fill: url(#linear-gradient-7);
      }

      .cls-31 {
        fill: url(#linear-gradient-39);
      }

      .cls-32 {
        fill: url(#linear-gradient-3);
      }

      .cls-33 {
        fill: url(#linear-gradient-9);
      }

      .cls-34 {
        fill: url(#linear-gradient-27);
      }

      .cls-35 {
        fill: #5d5d5d;
      }

      .cls-36 {
        fill: url(#linear-gradient-36);
      }

      .cls-37 {
        fill: url(#linear-gradient-48);
      }

      .cls-38 {
        fill: url(#linear-gradient-8);
      }

      .cls-39 {
        fill: url(#linear-gradient-47);
      }

      .cls-40 {
        fill: url(#linear-gradient-24);
      }

      .cls-41 {
        fill: url(#linear-gradient-26);
      }

      .cls-42 {
        fill: url(#linear-gradient-18);
      }

      .cls-43 {
        fill: url(#linear-gradient-30);
      }

      .cls-44 {
        fill: url(#linear-gradient-44);
      }

      .cls-45 {
        fill: url(#linear-gradient-29);
      }

      .cls-46 {
        fill: url(#linear-gradient-46);
      }

      .cls-47 {
        fill: url(#linear-gradient-28);
      }

      .cls-48 {
        fill: url(#linear-gradient-10);
      }

      .cls-49 {
        fill: url(#linear-gradient-4);
      }

      .cls-50 {
        fill: url(#linear-gradient-37);
      }

      .cls-51 {
        fill: #002855;
      }
    </style>
    <linearGradient id="linear-gradient" x1="961.01" y1="171.42" x2="929.29" y2="311.5" gradientUnits="userSpaceOnUse">
      <stop offset="0" stop-color="#fff4c7"/>
      <stop offset=".29" stop-color="#f5da75"/>
      <stop offset=".36" stop-color="#f0d470"/>
      <stop offset=".45" stop-color="#e4c363"/>
      <stop offset=".55" stop-color="#d1a84d"/>
      <stop offset=".61" stop-color="#c1933c"/>
      <stop offset=".63" stop-color="#bd8e39"/>
      <stop offset=".79" stop-color="#a26a1f"/>
      <stop offset=".92" stop-color="#91540f"/>
      <stop offset="1" stop-color="#8b4c0a"/>
    </linearGradient>
    <linearGradient id="linear-gradient-2" x1="967.28" y1="216.11" x2="743.51" y2="419.62" xlink:href="#linear-gradient"/>
    <linearGradient id="linear-gradient-3" x1="812.65" y1="243.52" x2="958.01" y2="292.86" xlink:href="#linear-gradient"/>
    <linearGradient id="linear-gradient-4" x1="972.21" y1="183.07" x2="817.16" y2="364.56" xlink:href="#linear-gradient"/>
    <linearGradient id="linear-gradient-5" x1="821.6" y1="333.61" x2="960.21" y2="325.39" xlink:href="#linear-gradient"/>
    <linearGradient id="linear-gradient-6" x1="1000.45" y1="207.2" x2="845.4" y2="388.68" xlink:href="#linear-gradient"/>
    <linearGradient id="linear-gradient-7" x1="1030.6" y1="221.54" x2="914.3" y2="438.27" xlink:href="#linear-gradient"/>
    <linearGradient id="linear-gradient-8" x1="1042.39" y1="302.4" x2="945.48" y2="338.52" xlink:href="#linear-gradient"/>
    <linearGradient id="linear-gradient-9" x1="976.62" y1="266.68" x2="1158.69" y2="331.29" xlink:href="#linear-gradient"/>
    <linearGradient id="linear-gradient-10" x1="1029.76" y1="215.78" x2="959.28" y2="319.74" xlink:href="#linear-gradient"/>
    <linearGradient id="linear-gradient-11" x1="960.55" y1="214.69" x2="804.07" y2="428.07" xlink:href="#linear-gradient"/>
    <linearGradient id="linear-gradient-12" x1="946.05" y1="204.06" x2="789.58" y2="417.44" xlink:href="#linear-gradient"/>
    <linearGradient id="linear-gradient-13" x1="984.65" y1="232.37" x2="828.17" y2="445.74" xlink:href="#linear-gradient"/>
    <linearGradient id="linear-gradient-14" x1="1023" y1="260.49" x2="866.52" y2="473.87" xlink:href="#linear-gradient"/>
    <linearGradient id="linear-gradient-15" x1="1008.1" y1="249.56" x2="851.62" y2="462.94" xlink:href="#linear-gradient"/>
    <linearGradient id="linear-gradient-16" x1="975.2" y1="245.11" x2="625.9" y2="721.43" xlink:href="#linear-gradient"/>
    <linearGradient id="linear-gradient-17" x1="1162.33" y1="281.09" x2="884.64" y2="659.75" xlink:href="#linear-gradient"/>
    <linearGradient id="linear-gradient-18" x1="1589.75" y1="-199.58" x2="1565.74" y2="-93.53" gradientTransform="translate(-393.53 -62.74) rotate(18.26)" xlink:href="#linear-gradient"/>
    <linearGradient id="linear-gradient-19" x1="1594.5" y1="-165.74" x2="1425.08" y2="-11.67" gradientTransform="translate(-393.53 -62.74) rotate(18.26)" xlink:href="#linear-gradient"/>
    <linearGradient id="linear-gradient-20" x1="1477.43" y1="-144.99" x2="1587.48" y2="-107.64" gradientTransform="translate(-393.53 -62.74) rotate(18.26)" xlink:href="#linear-gradient"/>
    <linearGradient id="linear-gradient-21" x1="1598.24" y1="-190.76" x2="1480.84" y2="-53.35" gradientTransform="translate(-393.53 -62.74) rotate(18.26)" xlink:href="#linear-gradient"/>
    <linearGradient id="linear-gradient-22" x1="1484.21" y1="-76.78" x2="1589.15" y2="-83.01" gradientTransform="translate(-393.53 -62.74) rotate(18.26)" xlink:href="#linear-gradient"/>
    <linearGradient id="linear-gradient-23" x1="1619.62" y1="-172.49" x2="1502.22" y2="-35.08" gradientTransform="translate(-393.53 -62.74) rotate(18.26)" xlink:href="#linear-gradient"/>
    <linearGradient id="linear-gradient-24" x1="1642.44" y1="-161.63" x2="1554.39" y2="2.46" gradientTransform="translate(-393.53 -62.74) rotate(18.26)" xlink:href="#linear-gradient"/>
    <linearGradient id="linear-gradient-25" x1="1651.37" y1="-100.42" x2="1577.99" y2="-73.07" gradientTransform="translate(-393.53 -62.74) rotate(18.26)" xlink:href="#linear-gradient"/>
    <linearGradient id="linear-gradient-26" x1="1601.57" y1="-127.46" x2="1739.42" y2="-78.54" gradientTransform="translate(-393.53 -62.74) rotate(18.26)" xlink:href="#linear-gradient"/>
    <linearGradient id="linear-gradient-27" x1="1641.81" y1="-165.99" x2="1588.44" y2="-87.28" gradientTransform="translate(-393.53 -62.74) rotate(18.26)" xlink:href="#linear-gradient"/>
    <linearGradient id="linear-gradient-28" x1="1589.4" y1="-166.82" x2="1470.93" y2="-5.27" gradientTransform="translate(-393.53 -62.74) rotate(18.26)" xlink:href="#linear-gradient"/>
    <linearGradient id="linear-gradient-29" x1="1578.43" y1="-174.87" x2="1459.95" y2="-13.3" gradientTransform="translate(-393.53 -62.74) rotate(18.26)" xlink:href="#linear-gradient"/>
    <linearGradient id="linear-gradient-30" x1="1607.65" y1="-153.44" x2="1489.18" y2="8.12" gradientTransform="translate(-393.53 -62.74) rotate(18.26)" xlink:href="#linear-gradient"/>
    <linearGradient id="linear-gradient-31" x1="1636.68" y1="-132.14" x2="1518.23" y2="29.39" gradientTransform="translate(-393.53 -62.74) rotate(18.26)" xlink:href="#linear-gradient"/>
    <linearGradient id="linear-gradient-32" x1="1625.41" y1="-140.42" x2="1506.93" y2="21.14" gradientTransform="translate(-393.53 -62.74) rotate(18.26)" xlink:href="#linear-gradient"/>
    <linearGradient id="linear-gradient-33" x1="9247" y1="281.09" x2="8969.31" y2="659.75" gradientTransform="translate(9987.14) rotate(-180) scale(1 -1)" xlink:href="#linear-gradient"/>
    <linearGradient id="linear-gradient-34" x1="9267.09" y1="-2732.29" x2="9243.08" y2="-2626.23" gradientTransform="translate(10380.68 -62.74) rotate(161.74) scale(1 -1)" xlink:href="#linear-gradient"/>
    <linearGradient id="linear-gradient-35" x1="9271.84" y1="-2698.45" x2="9102.43" y2="-2544.37" gradientTransform="translate(10380.68 -62.74) rotate(161.74) scale(1 -1)" xlink:href="#linear-gradient"/>
    <linearGradient id="linear-gradient-36" x1="9154.77" y1="-2677.7" x2="9264.83" y2="-2640.34" gradientTransform="translate(10380.68 -62.74) rotate(161.74) scale(1 -1)" xlink:href="#linear-gradient"/>
    <linearGradient id="linear-gradient-37" x1="9275.58" y1="-2723.47" x2="9158.18" y2="-2586.06" gradientTransform="translate(10380.68 -62.74) rotate(161.74) scale(1 -1)" xlink:href="#linear-gradient"/>
    <linearGradient id="linear-gradient-38" x1="9161.55" y1="-2609.49" x2="9266.49" y2="-2615.71" gradientTransform="translate(10380.68 -62.74) rotate(161.74) scale(1 -1)" xlink:href="#linear-gradient"/>
    <linearGradient id="linear-gradient-39" x1="9296.96" y1="-2705.2" x2="9179.57" y2="-2567.79" gradientTransform="translate(10380.68 -62.74) rotate(161.74) scale(1 -1)" xlink:href="#linear-gradient"/>
    <linearGradient id="linear-gradient-40" x1="9319.78" y1="-2694.34" x2="9231.73" y2="-2530.25" gradientTransform="translate(10380.68 -62.74) rotate(161.74) scale(1 -1)" xlink:href="#linear-gradient"/>
    <linearGradient id="linear-gradient-41" x1="9328.71" y1="-2633.13" x2="9255.34" y2="-2605.78" gradientTransform="translate(10380.68 -62.74) rotate(161.74) scale(1 -1)" xlink:href="#linear-gradient"/>
    <linearGradient id="linear-gradient-42" x1="9278.91" y1="-2660.16" x2="9416.76" y2="-2611.25" gradientTransform="translate(10380.68 -62.74) rotate(161.74) scale(1 -1)" xlink:href="#linear-gradient"/>
    <linearGradient id="linear-gradient-43" x1="9319.15" y1="-2698.7" x2="9265.79" y2="-2619.99" gradientTransform="translate(10380.68 -62.74) rotate(161.74) scale(1 -1)" xlink:href="#linear-gradient"/>
    <linearGradient id="linear-gradient-44" x1="9266.74" y1="-2699.53" x2="9148.28" y2="-2537.98" gradientTransform="translate(10380.68 -62.74) rotate(161.74) scale(1 -1)" xlink:href="#linear-gradient"/>
    <linearGradient id="linear-gradient-45" x1="9255.78" y1="-2707.58" x2="9137.29" y2="-2546.01" gradientTransform="translate(10380.68 -62.74) rotate(161.74) scale(1 -1)" xlink:href="#linear-gradient"/>
    <linearGradient id="linear-gradient-46" x1="9285" y1="-2686.14" x2="9166.53" y2="-2524.59" gradientTransform="translate(10380.68 -62.74) rotate(161.74) scale(1 -1)" xlink:href="#linear-gradient"/>
    <linearGradient id="linear-gradient-47" x1="9314.03" y1="-2664.85" x2="9195.57" y2="-2503.31" gradientTransform="translate(10380.68 -62.74) rotate(161.74) scale(1 -1)" xlink:href="#linear-gradient"/>
    <linearGradient id="linear-gradient-48" x1="9302.75" y1="-2673.12" x2="9184.28" y2="-2511.57" gradientTransform="translate(10380.68 -62.74) rotate(161.74) scale(1 -1)" xlink:href="#linear-gradient"/>
  </defs>
  <g>
    <g>
      <path class="cls-35" d="M564.32,807.85c0-4.77.84-9.52,2.51-14.25,1.68-4.73,4.12-8.96,7.32-12.69,3.2-3.73,7.16-6.76,11.85-9.11,4.69-2.35,10.02-3.52,15.99-3.52,7.08,0,13.11,1.6,18.11,4.81,4.99,3.21,8.72,7.38,11.18,12.52l-6.26,3.8c-1.27-2.61-2.79-4.81-4.59-6.6-1.79-1.79-3.73-3.24-5.81-4.36-2.08-1.12-4.25-1.92-6.48-2.4-2.24-.48-4.44-.73-6.59-.73-4.77,0-8.98.97-12.63,2.91-3.65,1.94-6.73,4.47-9.22,7.6s-4.38,6.65-5.64,10.57c-1.27,3.91-1.9,7.88-1.9,11.9,0,4.4.76,8.61,2.29,12.63,1.53,4.02,3.62,7.58,6.26,10.67,2.64,3.09,5.78,5.55,9.39,7.38,3.61,1.83,7.55,2.74,11.79,2.74,2.23,0,4.53-.28,6.87-.84s4.62-1.45,6.82-2.68c2.2-1.23,4.23-2.76,6.09-4.58,1.86-1.83,3.43-4.04,4.69-6.65l6.49,3.35c-1.27,2.98-3.06,5.61-5.37,7.88-2.31,2.27-4.88,4.19-7.71,5.76-2.84,1.57-5.83,2.76-9,3.58-3.17.82-6.28,1.23-9.33,1.23-5.44,0-10.44-1.19-14.98-3.58-4.55-2.38-8.46-5.49-11.74-9.33-3.28-3.84-5.83-8.2-7.66-13.08-1.83-4.88-2.74-9.85-2.74-14.92Z"/>
      <path class="cls-35" d="M680.02,862.29v-19.9h-37.34v-6.71l39.69-51.42h5.25v51.2h9.84v6.93h-9.84v19.9h-7.6ZM650.73,835.46h29.96v-39.24l-29.96,39.24Z"/>
      <path class="cls-35" d="M751.57,789.96h-42.82v-7.04h54.89l-40.13,79.37h-8.72l36.78-72.33Z"/>
      <path class="cls-35" d="M811.6,848.1v-79.37h7.71v72.44h45.95v6.93h-53.66Z"/>
      <path class="cls-35" d="M873.09,848.1l33.2-79.37h6.37l33.2,79.37h-8.38l-10.29-24.82h-35.66l-10.17,24.82h-8.27ZM909.53,777.89l-16.32,39.24h32.2l-15.87-39.24Z"/>
      <path class="cls-35" d="M984.65,769.28h7.49l11.18,28.17,11.29-28.17h7.38l-13.86,33.87,15.2,35.88,28.73-70.32h8.49l-33.54,79.37h-6.93l-16.66-39.24-16.77,39.24h-6.93l-33.43-79.37h8.27l28.84,70.32,15.09-35.88-13.86-33.87Z"/>
      <path class="cls-35" d="M1075.87,848.1v-79.26h7.71v46.06l43.71-46.17h8.61l-32.42,34.88,34.21,44.49h-8.61l-30.41-39.91-15.09,15.54v24.37h-7.71Z"/>
      <path class="cls-35" d="M1143.06,848.1l33.2-79.37h6.37l33.2,79.37h-8.38l-10.29-24.82h-35.66l-10.17,24.82h-8.27ZM1179.5,777.89l-16.32,39.24h32.2l-15.87-39.24Z"/>
      <path class="cls-35" d="M1276.64,783.59c-2.23-2.53-5.24-4.58-9-6.15-3.77-1.56-7.99-2.35-12.69-2.35-7.08,0-12.22,1.32-15.43,3.97-3.2,2.65-4.81,6.24-4.81,10.79,0,2.39.43,4.34,1.29,5.87.86,1.53,2.2,2.85,4.03,3.97,1.83,1.12,4.13,2.09,6.93,2.91,2.8.82,6.09,1.64,9.89,2.46,4.25.89,8.05,1.88,11.4,2.96,3.35,1.08,6.22,2.46,8.61,4.14s4.21,3.73,5.48,6.15c1.27,2.42,1.9,5.42,1.9,9s-.71,6.82-2.13,9.5c-1.42,2.68-3.39,4.92-5.93,6.71-2.53,1.79-5.55,3.11-9.05,3.97-3.5.85-7.3,1.28-11.4,1.28-12.45,0-23.07-3.84-31.86-11.51l3.8-6.37c2.91,3.06,6.82,5.65,11.74,7.77,4.92,2.12,10.4,3.19,16.43,3.19s11.29-1.14,14.87-3.41c3.58-2.27,5.37-5.72,5.37-10.34,0-2.46-.5-4.53-1.51-6.2s-2.51-3.13-4.53-4.36c-2.01-1.23-4.53-2.29-7.55-3.19s-6.5-1.79-10.45-2.68c-4.17-.97-7.82-1.97-10.95-3.02-3.13-1.04-5.76-2.35-7.88-3.91-2.13-1.56-3.73-3.45-4.81-5.65-1.08-2.2-1.62-4.9-1.62-8.1,0-3.65.69-6.91,2.07-9.78s3.32-5.25,5.81-7.16c2.5-1.9,5.48-3.35,8.94-4.36,3.47-1,7.28-1.51,11.46-1.51,5.22,0,9.89.8,14.03,2.4,4.13,1.6,7.88,3.86,11.23,6.76l-3.69,6.26Z"/>
      <path class="cls-35" d="M1355.68,841.16v6.93h-53.32v-79.37h52.32v6.93h-44.61v28.62h38.9v6.6h-38.9v30.3h45.61Z"/>
    </g>
    <g>
      <g>
        <g>
          <g>
            <polygon class="cls-6" points="914.35 246.85 943.93 287.52 973.51 246.85 943.93 187.19 914.35 246.85"/>
            <polygon class="cls-28" points="943.93 287.52 973.51 246.85 943.93 187.19 943.93 287.52"/>
          </g>
          <g>
            <polygon class="cls-32" points="896.11 303.08 943.93 287.52 914.39 246.82 848.51 256.52 896.11 303.08"/>
            <polygon class="cls-49" points="943.93 287.52 914.39 246.82 848.51 256.52 943.93 287.52"/>
          </g>
          <g>
            <polygon class="cls-13" points="943.95 337.81 943.93 287.52 896.1 303.03 884.96 368.69 943.95 337.81"/>
            <polygon class="cls-8" points="943.93 287.52 896.1 303.03 884.96 368.69 943.93 287.52"/>
          </g>
          <g>
            <polygon class="cls-30" points="991.77 303.03 943.93 287.52 943.91 337.8 1002.9 368.69 991.77 303.03"/>
            <polygon class="cls-38" points="943.93 287.52 943.91 337.8 1002.9 368.69 943.93 287.52"/>
          </g>
          <g>
            <polygon class="cls-33" points="973.47 246.82 943.93 287.51 991.75 303.08 1039.35 256.51 973.47 246.82"/>
            <polygon class="cls-48" points="943.93 287.51 991.75 303.08 1039.35 256.51 943.93 287.51"/>
          </g>
          <g>
            <path class="cls-11" d="M943.93,287.52c-.29-32.87-.36-60.55,0-100.33.36,39.68.3,67.45,0,100.33Z"/>
            <path class="cls-2" d="M943.93,287.52c-36.6-11.51-65.89-21.11-95.42-31,29.98,9.46,55.44,17.62,95.42,31Z"/>
            <path class="cls-19" d="M943.93,287.52c-17.45,24.47-34.02,47.47-58.97,81.17,23.33-32.68,39.22-54.5,58.97-81.17Z"/>
            <path class="cls-27" d="M943.93,287.52c18.82,25.44,35.91,48.79,58.97,81.17-22.22-30.08-37.65-51.23-58.97-81.17Z"/>
            <path class="cls-10" d="M943.93,287.51c27.47-9.18,55.13-18.33,95.42-31-35.05,11.7-61.24,20.26-95.42,31Z"/>
          </g>
        </g>
        <path class="cls-12" d="M991.77,303.06l47.58-46.54-65.86-9.69-29.56-59.63h0s0,0,0,0h0s-29.57,59.64-29.57,59.64l-65.85,9.69,47.59,46.55-11.14,65.62,58.98-30.87,58.97,30.87-11.13-65.63ZM943.93,290.9v-3.38s-2.74.89-2.74.89l2.74-.89-.51-.7.51.7.03-.04-.03.04,3.31,1.08-3.31-1.07v3.38Z"/>
      </g>
      <g>
        <path class="cls-3" d="M1169.68,347.73l45.25-22.18-45.06-22.59-7.11-49.89h0s0,0,0,0c0,0,0,0,0,0l-35.4,35.87-49.65-8.65,23.18,44.76-23.57,44.55,49.73-8.21,35.08,36.18,7.56-49.83ZM1138.11,327.81l.85-2.59h-2.1s2.09,0,2.09,0l-.16-.5.16.5.1-.07-.09.07,2.3,1.69-2.3-1.69-.86,2.6Z"/>
        <g class="cls-52">
          <g>
            <polygon class="cls-42" points="1127.34 288.96 1138.96 325.21 1169.87 302.99 1162.76 253.07 1127.34 288.96"/>
            <polygon class="cls-4" points="1138.96 325.21 1169.87 302.99 1162.76 253.07 1138.96 325.21"/>
          </g>
          <g>
            <polygon class="cls-26" points="1100.89 325.06 1138.96 325.21 1127.38 288.95 1077.7 280.29 1100.89 325.06"/>
            <polygon class="cls-7" points="1138.96 325.21 1127.38 288.95 1077.7 280.29 1138.96 325.21"/>
          </g>
          <g>
            <polygon class="cls-23" points="1127.05 361.38 1138.96 325.22 1100.89 325.03 1077.31 369.59 1127.05 361.38"/>
            <polygon class="cls-20" points="1138.96 325.22 1100.89 325.03 1077.31 369.59 1138.96 325.22"/>
          </g>
          <g>
            <polygon class="cls-40" points="1169.68 347.72 1138.97 325.22 1127.02 361.37 1162.12 397.57 1169.68 347.72"/>
            <polygon class="cls-21" points="1138.97 325.22 1127.02 361.37 1162.12 397.57 1138.97 325.22"/>
          </g>
          <g>
            <polygon class="cls-41" points="1169.86 302.95 1138.97 325.21 1169.65 347.74 1214.93 325.55 1169.86 302.95"/>
            <polygon class="cls-34" points="1138.97 325.21 1169.65 347.74 1214.93 325.55 1138.97 325.21"/>
          </g>
          <g>
            <path class="cls-47" d="M1138.96,325.21c7.59-23.71,14.11-43.63,23.79-72.14-9.16,28.62-15.78,48.57-23.79,72.14Z"/>
            <path class="cls-45" d="M1138.96,325.21c-23.58-16.96-42.37-30.81-61.26-44.92,19.31,13.91,35.68,25.82,61.26,44.92Z"/>
            <path class="cls-43" d="M1138.96,325.22c-18.35,13.46-35.72,26.07-61.66,44.38,24.52-17.96,41.13-29.89,61.66-44.38Z"/>
            <path class="cls-14" d="M1138.97,325.22c7.5,22.76,14.25,43.6,23.15,72.35-8.84-26.9-14.92-45.76-23.15-72.35Z"/>
            <path class="cls-25" d="M1138.97,325.21c21.93-.09,43.99-.1,75.96.34-27.98.1-48.84.04-75.96-.34Z"/>
          </g>
        </g>
      </g>
      <g>
        <path class="cls-5" d="M740.36,397.57l35.08-36.18,49.73,8.21-23.57-44.55,23.18-44.76-49.65,8.65-35.4-35.87s0,0,0,0t0,0h0s-7.11,49.89-7.11,49.89l-45.06,22.59,45.25,22.18,7.56,49.83ZM763.51,325.22l-2.3,1.69,2.3-1.69-.09-.07.1.07.16-.5-.16.5h2.09s-2.1,0-2.1,0l.85,2.59-.86-2.6Z"/>
        <g class="cls-52">
          <g>
            <polygon class="cls-16" points="775.14 288.96 763.51 325.21 732.6 302.99 739.72 253.07 775.14 288.96"/>
            <polygon class="cls-24" points="763.51 325.21 732.6 302.99 739.72 253.07 763.51 325.21"/>
          </g>
          <g>
            <polygon class="cls-36" points="801.59 325.06 763.51 325.21 775.1 288.95 824.77 280.29 801.59 325.06"/>
            <polygon class="cls-50" points="763.51 325.21 775.1 288.95 824.77 280.29 763.51 325.21"/>
          </g>
          <g>
            <polygon class="cls-1" points="775.42 361.38 763.51 325.22 801.59 325.03 825.17 369.59 775.42 361.38"/>
            <polygon class="cls-31" points="763.51 325.22 801.59 325.03 825.17 369.59 763.51 325.22"/>
          </g>
          <g>
            <polygon class="cls-18" points="732.8 347.72 763.51 325.22 775.46 361.37 740.36 397.57 732.8 347.72"/>
            <polygon class="cls-17" points="763.51 325.22 775.46 361.37 740.36 397.57 763.51 325.22"/>
          </g>
          <g>
            <polygon class="cls-9" points="732.62 302.95 763.51 325.21 732.82 347.74 687.55 325.55 732.62 302.95"/>
            <polygon class="cls-22" points="763.51 325.21 732.82 347.74 687.55 325.55 763.51 325.21"/>
          </g>
          <g>
            <path class="cls-44" d="M763.51,325.21c-7.59-23.71-14.11-43.63-23.79-72.14,9.16,28.62,15.78,48.57,23.79,72.14Z"/>
            <path class="cls-29" d="M763.51,325.21c23.58-16.96,42.37-30.81,61.26-44.92-19.31,13.91-35.68,25.82-61.26,44.92Z"/>
            <path class="cls-46" d="M763.51,325.22c18.35,13.46,35.72,26.07,61.66,44.38-24.52-17.96-41.13-29.89-61.66-44.38Z"/>
            <path class="cls-39" d="M763.51,325.22c-7.5,22.76-14.25,43.6-23.15,72.35,8.84-26.9,14.92-45.76,23.15-72.35Z"/>
            <path class="cls-37" d="M763.51,325.21c-21.93-.09-43.99-.1-75.96.34,27.98.1,48.84.04,75.96-.34Z"/>
          </g>
        </g>
      </g>
      <path class="cls-51" d="M917.31,612.03l-9.45,86.55h-218.55v-6.91h8.18c12.73,0,20.91-4.17,24.54-12.53,1.34-3.15,2.01-10.77,2.01-22.87v-161.93c0-10.04-.18-16.03-.55-17.97-1.09-6.17-4.24-10.83-9.45-13.98-4.12-2.3-9.63-3.45-16.54-3.45h-8.18v-6.91h131.28v6.91h-10.72c-12.73,0-20.98,4.18-24.73,12.55-1.34,3.03-2.01,10.67-2.01,22.91v157.09c0,9.94.18,16,.55,18.18,1.33,7.03,4.72,11.58,10.17,13.64,2.77,1.09,10.1,1.64,21.96,1.64h20.53c24.57,0,43.02-9.6,55.37-28.8,6.3-9.96,12.29-24.67,17.97-44.11h7.64Z"/>
      <g>
        <path class="cls-51" d="M896.89,286.45c0-2.3.41-4.6,1.24-6.88s2.04-4.34,3.65-6.16c1.6-1.82,3.55-3.28,5.86-4.4,2.3-1.12,4.92-1.67,7.83-1.67,3.49,0,6.48.77,8.96,2.32,2.48,1.55,4.36,3.56,5.62,6.05l-4.75,3.19c-.54-1.15-1.19-2.12-1.94-2.92-.76-.79-1.58-1.42-2.48-1.89-.9-.47-1.84-.8-2.81-1-.97-.2-1.91-.3-2.81-.3-2.02,0-3.78.41-5.29,1.22-1.51.81-2.78,1.88-3.81,3.21-1.03,1.33-1.8,2.83-2.32,4.48-.52,1.66-.78,3.31-.78,4.97,0,1.87.31,3.65.92,5.35.61,1.69,1.47,3.19,2.56,4.48,1.1,1.3,2.4,2.33,3.92,3.11,1.51.77,3.17,1.16,4.97,1.16.94,0,1.9-.12,2.89-.35.99-.23,1.94-.61,2.86-1.13.92-.52,1.76-1.18,2.54-1.97.77-.79,1.41-1.75,1.92-2.86l5.02,2.86c-.61,1.44-1.48,2.71-2.59,3.81-1.12,1.1-2.38,2.02-3.78,2.78-1.4.76-2.89,1.33-4.46,1.73-1.57.4-3.11.59-4.62.59-2.7,0-5.17-.58-7.4-1.73-2.23-1.15-4.16-2.65-5.78-4.51-1.62-1.85-2.88-3.96-3.78-6.32-.9-2.36-1.35-4.76-1.35-7.21Z"/>
        <path class="cls-51" d="M949.7,312.75v-8.59h-16.58v-5.29l18.47-23.82h4.05v23.71h4.75v5.4h-4.75v8.59h-5.94ZM939.17,298.77h11.18v-14.63l-11.18,14.63Z"/>
        <path class="cls-51" d="M981.57,279.87h-18.58v-5.45h27.97l-19.17,38.34h-6.75l16.53-32.89Z"/>
      </g>
      <g>
        <path class="cls-15" d="M1143.99,461.66c1.18.57,2.31,1.16,3.39,1.76,10.02,5.56,16.92,11.77,20.69,18.65,3.77,6.89,4.19,14.1,2.72,21.95-.47,2.5-.97,4.38-1.39,5.71-.51,1.62.41.75.53.59,10.45-12.55,40.1-50.8,40.1-50.8,4.21-4.59,1.37-7.44-7.05-7.4l-55.36-.09c-8.88-.09-10.47,6.31-3.64,9.63Z"/>
        <path class="cls-51" d="M1204.06,685.86c-8.83-5.44-19.37-15.79-31.6-31.04l-86.61-108.37-43.69,35.08,56.55,70.89c11.17,14.05,16.77,23.62,16.77,28.71,0,5.93-6.43,9.45-19.28,10.54v6.91h128.19v-6.91c-7.27,0-14.05-1.93-20.34-5.81Z"/>
        <path class="cls-51" d="M1033.46,674.39c-.35-2.06-.52-8.12-.52-18.18v-161.88c0-12.34.73-20.09,2.18-23.24,3.75-8.11,12.61-12.16,26.55-12.16v-6.91h-122.55v6.91h8.18c6.9,0,12.42,1.15,16.54,3.45,5.21,3.15,8.37,7.81,9.45,13.98.37,1.94.54,7.93.54,17.97v161.93c0,12.1-.67,19.73-2,22.87-3.64,8.35-11.82,12.52-24.54,12.52h-8.18v6.91h122.55v-6.91c-8.61,0-14.86-1.15-18.76-3.45-5.16-2.91-8.31-7.51-9.45-13.82Z"/>
      </g>
    </g>
  </g>
  <rect class="cls-15" x="1203.78" y="909.55" width="151.9" height="6.75"/>
  <rect class="cls-15" x="564.32" y="909.55" width="151.9" height="6.75"/>
  <g>
    <path class="cls-51" d="M729.31,922.04c.88.54,2.05.99,3.5,1.37,1.46.38,2.9.57,4.33.57,2.24,0,3.98-.42,5.23-1.25,1.25-.83,1.87-2.08,1.87-3.73,0-1.1-.3-2.04-.91-2.81-.6-.77-1.39-1.44-2.36-1.99-.97-.55-2.38-1.24-4.23-2.06-5.47-2.43-8.2-5.5-8.2-9.2,0-1.77.49-3.23,1.47-4.37.98-1.14,2.23-1.96,3.76-2.46s3.15-.76,4.88-.76,3.3.17,4.53.51c1.24.34,2.2.73,2.88,1.18l-.72,2.9c-.84-.59-1.79-1.04-2.84-1.36-1.06-.32-2.35-.48-3.87-.48-1.17,0-2.27.16-3.3.49s-1.86.83-2.5,1.5c-.64.67-.96,1.49-.96,2.46,0,1.1.26,2.04.77,2.81.51.77,1.24,1.46,2.18,2.06.94.6,2.27,1.3,3.99,2.11,1.83.86,3.34,1.66,4.54,2.41,1.2.75,2.22,1.68,3.05,2.79.83,1.12,1.25,2.43,1.25,3.93,0,1.76-.43,3.25-1.3,4.46-.87,1.21-2.07,2.12-3.62,2.72-1.55.6-3.34.91-5.39.91-1.29,0-2.54-.1-3.76-.29-1.22-.19-2.28-.43-3.18-.72s-1.56-.57-1.96-.84l.84-2.86Z"/>
    <path class="cls-51" d="M753.47,894.46c.24-.4.56-.71.95-.95.39-.23.8-.35,1.23-.35.71,0,1.26.21,1.64.64.38.43.57.99.57,1.69,0,.52-.12.99-.35,1.39-.23.41-.55.72-.94.94-.39.22-.81.33-1.25.33-.62,0-1.14-.21-1.57-.64-.43-.43-.64-1-.64-1.71,0-.49.12-.94.36-1.34ZM757.21,903.26v23.49h-3.42v-23.49h3.42Z"/>
    <path class="cls-51" d="M795.68,904.13c.97.6,1.68,1.56,2.12,2.9.45,1.33.67,3.15.67,5.43v14.28h-3.42v-14.05c0-1.58-.12-2.83-.35-3.75-.23-.92-.69-1.62-1.38-2.1-.69-.48-1.7-.72-3.03-.72-1.03,0-2.15.24-3.35.73-1.2.49-2.29,1.06-3.27,1.72.16,1.07.25,2.33.25,3.8v14.37h-3.44v-14.09c0-1.63-.12-2.91-.36-3.84-.24-.93-.69-1.61-1.36-2.04-.67-.43-1.63-.65-2.9-.65-1.04,0-2.22.3-3.53.91-1.31.6-2.44,1.34-3.37,2.19v17.52h-3.44v-23.49h3.07l.02,3.67c.63-.56,1.42-1.12,2.38-1.67.96-.56,1.98-1.03,3.08-1.43,1.1-.39,2.16-.59,3.17-.59,1.52,0,2.75.26,3.69.78.93.52,1.64,1.41,2.12,2.67,1.08-.91,2.42-1.71,4.01-2.4,1.59-.7,3.16-1.04,4.71-1.04,1.63,0,2.94.3,3.9.89Z"/>
    <path class="cls-51" d="M821.24,904.42c1.4.79,2.52,2.01,3.37,3.65.85,1.65,1.27,3.71,1.27,6.18s-.49,4.58-1.46,6.47c-.98,1.89-2.36,3.37-4.14,4.44-1.79,1.06-3.84,1.6-6.16,1.6-1.64,0-3.17-.26-4.59-.78l.06,3.41v7.78h-3.42v-33.91h3.09l.02,3.3c.84-.91,1.83-1.69,2.99-2.34,1.15-.65,2.6-.98,4.35-.98s3.23.39,4.64,1.18ZM820.62,908.1c-1.17-1.44-2.82-2.16-4.94-2.16-1.22,0-2.37.26-3.43.77-1.06.51-1.95,1.11-2.67,1.78v14.65c.41.34,1.02.61,1.83.82.81.2,1.81.3,3.01.3,1.54,0,2.91-.39,4.11-1.16,1.2-.77,2.14-1.89,2.82-3.36.68-1.47,1.02-3.21,1.02-5.23,0-2.83-.58-4.97-1.75-6.41Z"/>
    <path class="cls-51" d="M835.85,892.81v33.93h-3.44v-33.93h3.44Z"/>
    <path class="cls-51" d="M844.27,894.46c.24-.4.56-.71.95-.95.39-.23.8-.35,1.23-.35.71,0,1.26.21,1.64.64.38.43.57.99.57,1.69,0,.52-.12.99-.35,1.39-.23.41-.55.72-.94.94-.39.22-.81.33-1.25.33-.62,0-1.14-.21-1.57-.64-.43-.43-.64-1-.64-1.71,0-.49.12-.94.36-1.34ZM848,903.26v23.49h-3.42v-23.49h3.42Z"/>
    <path class="cls-51" d="M853.92,905.85v-1.9l4.04-.7v-1.9c0-2.18.39-3.97,1.19-5.36.79-1.39,1.79-2.39,3.01-3,1.21-.61,2.51-.92,3.88-.92.56,0,1.1.04,1.62.13.52.09.91.19,1.19.3v2.74c-.38-.14-.83-.24-1.34-.31-.51-.07-1.15-.1-1.94-.1-1.28,0-2.29.5-3.04,1.49-.75,1-1.12,2.42-1.12,4.28v2.64h6.24v2.6h-6.24v20.89h-3.44v-20.89h-4.04Z"/>
    <path class="cls-51" d="M890.84,903.26l-8.08,24.08c-.95,2.87-1.98,5.08-3.09,6.62-1.11,1.55-2.42,2.53-3.94,2.96-.32.07-.67.13-1.07.19-.4.05-.75.08-1.05.08-.36,0-.8-.03-1.33-.08-.53-.06-.85-.12-.96-.21v-2.82c.22.07.54.13.95.18.41.05.78.07,1.09.07,3.02,0,5.18-2.53,6.47-7.58h-1.01l-8.82-23.49h3.67l5.65,16.11,1.57,4.61,1.36-4.61,4.88-16.11h3.71Z"/>
    <path class="cls-51" d="M895.69,894.46c.24-.4.56-.71.95-.95.39-.23.8-.35,1.23-.35.71,0,1.26.21,1.64.64.38.43.57.99.57,1.69,0,.52-.12.99-.35,1.39-.23.41-.55.72-.94.94-.39.22-.81.33-1.25.33-.62,0-1.14-.21-1.57-.64-.43-.43-.64-1-.64-1.71,0-.49.12-.94.36-1.34ZM899.43,903.26v23.49h-3.42v-23.49h3.42Z"/>
    <path class="cls-51" d="M910.82,903.26l.02,3.67c1.13-.91,2.5-1.76,4.11-2.53,1.61-.77,3.2-1.16,4.77-1.16,1.66,0,2.98.3,3.97.9.98.6,1.7,1.57,2.14,2.9.45,1.33.67,3.12.67,5.38v14.32h-3.44v-14.28c0-1.59-.14-2.84-.42-3.76-.28-.92-.78-1.58-1.5-2-.72-.42-1.75-.63-3.08-.63-1.06,0-2.23.31-3.5.94-1.28.62-2.4,1.36-3.36,2.2v17.52h-3.44v-23.49h3.07Z"/>
    <path class="cls-51" d="M954.85,906.02h-4.78c.95,1.26,1.42,2.79,1.42,4.58,0,1.7-.41,3.16-1.23,4.38-.82,1.22-1.93,2.15-3.34,2.78-1.41.63-2.98.95-4.73.95-1.13,0-2.18-.14-3.17-.43-.43.33-.79.77-1.1,1.34-.31.56-.46,1.13-.46,1.7,0,.7.11,1.24.32,1.64.21.39.56.67,1.04.83.48.16,1.15.25,2,.25h5.09c3.08,0,5.19.53,6.35,1.58s1.73,2.44,1.73,4.16c0,1.49-.5,2.79-1.49,3.92-1,1.12-2.35,1.99-4.07,2.6-1.72.61-3.62.91-5.71.91-3.12,0-5.55-.53-7.29-1.59-1.74-1.06-2.62-2.71-2.62-4.95,0-1.07.33-2.02.99-2.87.66-.85,1.42-1.51,2.29-1.98-.66-.38-1.12-.87-1.38-1.46-.26-.59-.39-1.27-.39-2.03,0-.83.26-1.69.77-2.57.51-.88,1.19-1.64,2.03-2.27-1.21-.65-2.16-1.52-2.84-2.6-.69-1.09-1.03-2.33-1.03-3.72,0-1.76.41-3.24,1.24-4.42.82-1.19,1.94-2.06,3.35-2.63,1.41-.57,3-.85,4.77-.85,2.17,0,4.02.41,5.54,1.22.54-.33,1.22-.61,2.06-.85.84-.24,1.65-.36,2.45-.36h2.2v2.76ZM938.06,926.54c-1.26,1.03-1.9,2.26-1.9,3.7,0,1.59.54,2.76,1.62,3.49,1.08.73,2.74,1.1,5,1.1,1.4,0,2.7-.16,3.9-.48,1.2-.32,2.17-.81,2.91-1.47.73-.66,1.1-1.45,1.1-2.39s-.2-1.62-.59-2.16c-.39-.54-1.04-.94-1.94-1.2-.9-.25-2.12-.38-3.66-.38h-3.17c-1.36,0-2.45-.07-3.28-.21ZM946.53,915.07c1.03-.88,1.55-2.28,1.55-4.18,0-1.74-.48-3.06-1.45-3.96-.97-.9-2.32-1.35-4.05-1.35s-3.17.42-4.26,1.25c-1.1.83-1.65,2.23-1.65,4.18,0,1.04.22,1.96.65,2.77.43.81,1.07,1.45,1.91,1.92.84.47,1.85.7,3.05.7,1.81,0,3.23-.44,4.26-1.33Z"/>
    <path class="cls-51" d="M976.81,895.38v28.62h12.96v2.74h-16.5v-31.36h3.54Z"/>
    <path class="cls-51" d="M996.51,915.04v.82c.1,2.87.83,4.97,2.2,6.3,1.37,1.33,3.22,2,5.54,2,1.06,0,2.23-.16,3.52-.47,1.29-.32,2.25-.68,2.86-1.09l.66,2c-.76.63-1.9,1.15-3.42,1.56-1.52.4-3.03.61-4.51.61-2.18,0-4.04-.46-5.57-1.39-1.53-.92-2.69-2.26-3.48-4.01-.79-1.75-1.19-3.84-1.19-6.27s.42-4.39,1.26-6.17c.84-1.79,2.06-3.18,3.66-4.19,1.6-1,3.51-1.51,5.74-1.51,1.62,0,3.05.35,4.29,1.04s2.2,1.67,2.9,2.94c.7,1.27,1.07,2.73,1.11,4.4,0,.89,0,1.58-.03,2.07-.02.49-.07.94-.15,1.36h-15.39ZM998.89,907.42c-1.2,1.16-1.95,2.93-2.26,5.31h12.22c.01-.19.02-.48.02-.87,0-1.89-.43-3.4-1.3-4.51-.87-1.11-2.24-1.67-4.12-1.67s-3.36.58-4.56,1.73Z"/>
    <path class="cls-51" d="M1038.76,906.02h-4.78c.95,1.26,1.42,2.79,1.42,4.58,0,1.7-.41,3.16-1.23,4.38-.82,1.22-1.93,2.15-3.34,2.78-1.41.63-2.98.95-4.73.95-1.13,0-2.18-.14-3.17-.43-.43.33-.79.77-1.1,1.34-.31.56-.46,1.13-.46,1.7,0,.7.11,1.24.32,1.64.21.39.56.67,1.04.83.48.16,1.15.25,2,.25h5.09c3.08,0,5.19.53,6.35,1.58s1.73,2.44,1.73,4.16c0,1.49-.5,2.79-1.49,3.92-1,1.12-2.35,1.99-4.07,2.6-1.72.61-3.62.91-5.71.91-3.12,0-5.55-.53-7.29-1.59-1.74-1.06-2.62-2.71-2.62-4.95,0-1.07.33-2.02.99-2.87.66-.85,1.42-1.51,2.29-1.98-.66-.38-1.12-.87-1.38-1.46-.26-.59-.39-1.27-.39-2.03,0-.83.26-1.69.77-2.57.51-.88,1.19-1.64,2.03-2.27-1.21-.65-2.16-1.52-2.84-2.6-.69-1.09-1.03-2.33-1.03-3.72,0-1.76.41-3.24,1.24-4.42.82-1.19,1.94-2.06,3.35-2.63,1.41-.57,3-.85,4.77-.85,2.17,0,4.02.41,5.54,1.22.54-.33,1.22-.61,2.06-.85.84-.24,1.65-.36,2.45-.36h2.2v2.76ZM1021.97,926.54c-1.26,1.03-1.9,2.26-1.9,3.7,0,1.59.54,2.76,1.62,3.49,1.08.73,2.74,1.1,5,1.1,1.4,0,2.7-.16,3.9-.48,1.2-.32,2.17-.81,2.91-1.47.73-.66,1.1-1.45,1.1-2.39s-.2-1.62-.59-2.16c-.39-.54-1.04-.94-1.94-1.2-.9-.25-2.12-.38-3.66-.38h-3.17c-1.36,0-2.45-.07-3.28-.21ZM1030.44,915.07c1.03-.88,1.55-2.28,1.55-4.18,0-1.74-.48-3.06-1.45-3.96-.97-.9-2.32-1.35-4.05-1.35s-3.17.42-4.26,1.25c-1.1.83-1.65,2.23-1.65,4.18,0,1.04.22,1.96.65,2.77.43.81,1.07,1.45,1.91,1.92.84.47,1.85.7,3.05.7,1.81,0,3.23-.44,4.26-1.33Z"/>
    <path class="cls-51" d="M1055.69,903.83c1.16.39,2.06,1.1,2.71,2.13.65,1.02.97,2.46.97,4.3v16.51h-1.4c-.45,0-.8-.03-1.05-.1-.25-.07-.44-.22-.57-.45-.13-.23-.2-.6-.2-1.09v-.87c-.74.67-1.76,1.26-3.05,1.76-1.29.5-2.71.75-4.24.75-1.39,0-2.62-.26-3.71-.78-1.09-.52-1.93-1.28-2.53-2.27-.6-.99-.91-2.15-.91-3.48,0-1.52.43-2.83,1.29-3.91.86-1.08,2.12-1.94,3.78-2.55,1.26-.47,2.75-.81,4.45-1.04,1.7-.23,3.28-.34,4.72-.34v-2.48c0-1.11-.21-1.96-.62-2.55-.41-.59-1.01-.98-1.78-1.19-.78-.21-1.8-.31-3.08-.31-.76,0-1.59.1-2.5.29-.91.19-1.77.43-2.57.71-.8.29-1.41.57-1.83.85l-.84-2.11c.34-.23.97-.54,1.9-.91.92-.37,1.98-.7,3.19-1,1.21-.3,2.39-.44,3.54-.44,1.73,0,3.18.2,4.34.59ZM1052.51,923.83c.85-.24,1.59-.52,2.2-.84.62-.32,1.03-.6,1.24-.83v-7.56c-1.09,0-2.35.09-3.78.27-1.44.18-2.6.45-3.49.82-1.19.45-2.09,1.03-2.68,1.72-.59.69-.89,1.55-.89,2.57,0,1.31.39,2.34,1.16,3.09.78.76,1.97,1.13,3.59,1.13.91,0,1.79-.12,2.64-.36Z"/>
    <path class="cls-51" d="M1070.88,892.81v33.93h-3.44v-33.93h3.44Z"/>
    <path class="cls-51" d="M1127.46,895.38l-8.08,31.36h-3.42l-6.7-22.23-.76-3.69-.76,3.69-6.78,22.23h-3.05l-8.49-31.36h3.58l5.13,20.53,1.42,6.84,1.52-6.84,6.14-20.53h2.58l6.2,20.53,1.75,6.75,1.32-6.73,4.86-20.55h3.52Z"/>
    <path class="cls-51" d="M1131.64,908.58c.92-1.75,2.19-3.07,3.8-3.98,1.61-.91,3.44-1.37,5.49-1.37,2.31,0,4.22.52,5.75,1.58,1.52,1.05,2.65,2.47,3.37,4.24.72,1.78,1.08,3.78,1.08,6,0,2.42-.45,4.52-1.36,6.28s-2.16,3.11-3.77,4.03c-1.61.92-3.44,1.39-5.5,1.39-2.35,0-4.29-.54-5.82-1.61-1.53-1.07-2.65-2.5-3.36-4.29-.71-1.79-1.06-3.8-1.06-6.03,0-2.42.46-4.51,1.38-6.25ZM1146.9,910.29c-.5-1.41-1.27-2.52-2.31-3.34-1.04-.82-2.32-1.23-3.84-1.23s-2.71.36-3.75,1.07c-1.04.71-1.84,1.74-2.4,3.08-.56,1.34-.83,2.95-.83,4.83s.25,3.42.75,4.87c.5,1.45,1.27,2.6,2.31,3.46,1.04.86,2.32,1.29,3.86,1.29s2.73-.37,3.77-1.12c1.04-.74,1.84-1.81,2.38-3.19.54-1.38.81-3.02.81-4.91s-.25-3.4-.75-4.81Z"/>
    <path class="cls-51" d="M1169.61,903.25v3.49c-.6-.32-1.55-.48-2.84-.48s-2.4.27-3.5.82c-1.1.54-2.01,1.17-2.72,1.88v17.79h-3.44v-23.49h2.93l.21,3.47c.36-.47.92-.97,1.68-1.52.76-.54,1.63-1.01,2.6-1.39.97-.39,1.93-.58,2.87-.58,1.06,0,1.8,0,2.23.02Z"/>
    <path class="cls-51" d="M1181.23,914.77l-3.71,3.69.08,3.67v4.61h-3.42v-33.93h3.42v19.38l-.08,2.5,11.06-11.43h4.08l-9.17,9.23,10.18,14.26h-3.94l-8.51-11.97Z"/>
  </g>
</svg>